# xmcd CD database file
#
# Track frame offsets:
#	180
#	29585
#	43695
#	71207
#	99455
#	127672
#	152730
#	181842
#	210155
#	236032
#
# Disc length: 3364 seconds
#
# Revision: 0
# Processed by: cddbd v1.4PL0 Copyright (c) Steve Scherf et al.
# Submitted via: CDex 1.50beta10
#
DISCID=7f0d220a
DTITLE=L'Orchestre International Empire Bakuba - Savoir Vivre
DYEAR=2002
DGENRE=Merengue
TTITLE0=Bobo
TTITLE1=Show Time
TTITLE2=Savoir Vivre
TTITLE3=Deux Problemes
TTITLE4=Qu'est-ce que c'est
TTITLE5=L'Espoir en christ
TTITLE6=Lisola
TTITLE7=Marie Mosantu
TTITLE8=Cherie Clau
TTITLE9=Donne ma ta main
EXTD=YEAR: 2002
EXTT0=
EXTT1=
EXTT2=
EXTT3=
EXTT4=
EXTT5=
EXTT6=
EXTT7=
EXTT8=
EXTT9=
PLAYORDER=
